<svg xmlns="http://www.w3.org/2000/svg" version="1.1" xmlns:xlink="http://www.w3.org/1999/xlink" xmlns:svgjs="http://svgjs.dev/svgjs" width="1280" height="720" preserveAspectRatio="none" viewBox="0 0 1280 720"><g mask="url(&quot;#SvgjsMask1053&quot;)" fill="none"><rect width="1280" height="720" x="0" y="0" fill="rgba(28, 27, 34, 1)"></rect><path d="M0,607.023C111.852,610.667,200.155,517.502,288.106,448.301C368.681,384.903,462.233,322.128,488.157,222.934C513.217,127.047,452.856,33.336,421.092,-60.544C395.048,-137.52,368.96,-212.339,319.159,-276.553C267.106,-343.671,205.119,-401.025,128.539,-437.765C41.925,-479.319,-51.003,-506.627,-146.849,-500.123C-258.403,-492.553,-397.75,-491.306,-459.178,-397.88C-522.036,-302.279,-428.185,-176.721,-434.598,-62.486C-440.21,37.474,-524.829,130.375,-494.186,225.687C-463.087,322.416,-356.73,367.841,-276.289,429.913C-187.892,498.124,-111.596,603.387,0,607.023" fill="#16161b"></path><path d="M1280 1206.07C1369.344 1185.1680000000001 1448.167 1147.8220000000001 1533.853 1115.004 1645.147 1072.378 1798.7640000000001 1087.272 1858.871 984.3620000000001 1917.908 883.284 1858.649 749.941 1808.9850000000001 643.943 1767.164 554.685 1671.08 511.45 1603.6190000000001 439.582 1539.6970000000001 371.484 1505.46 276.763 1423.054 232.80200000000002 1331.522 183.97199999999998 1221.707 153.24300000000005 1122.262 182.79200000000003 1022.898 212.31799999999998 953.229 301.24 897.8489999999999 388.864 847.749 468.135 840.4649999999999 562.112 824.1600000000001 654.46 807.279 750.072 782.913 843.4300000000001 800.741 938.87 822.219 1053.846 834.144 1197.844 936.304 1254.801 1039.458 1312.312 1165.002 1232.9740000000002 1280 1206.07" fill="#222029"></path></g><defs><mask id="SvgjsMask1053"><rect width="1280" height="720" fill="#ffffff"></rect></mask></defs></svg>